<?xml version="1.0" encoding="UTF-8" standalone="no"?>
<svg width="32px" height="32px" viewBox="0 0 32 32" version="1.1" xmlns="http://www.w3.org/2000/svg" xmlns:xlink="http://www.w3.org/1999/xlink" xmlns:sketch="http://www.bohemiancoding.com/sketch/ns">
    <!-- Generator: Sketch 3.3.2 (12043) - http://www.bohemiancoding.com/sketch -->
    <title>Shape</title>
    <desc>Created with Sketch.</desc>
    <defs></defs>
    <g id="eve" stroke="none" stroke-width="1" fill="none" fill-rule="evenodd" sketch:type="MSPage">
        <g id="5.1-设置" sketch:type="MSArtboardGroup" transform="translate(-30.000000, -182.000000)" fill="#4990E2">
            <path d="M60.4990692,213.000031 C59.6710945,213.000031 58.999115,212.328051 58.999115,211.500076 L58.999115,207.325204 C56.0212059,211.490077 51.232352,214 45.9995117,214 C37.1777809,214 30,206.823219 30,198.000488 C30,189.177757 37.1777809,182.000977 45.9995117,182.000977 C52.5023133,182.000977 58.309136,185.885858 60.7930603,191.896675 C60.9510554,192.279663 60.9390558,192.68965 60.7920603,193.04264 C60.6460648,193.397629 60.3620734,193.69662 59.9790851,193.855615 C59.5970968,194.01361 59.1871093,194.00161 58.8331201,193.854615 C58.4791309,193.707619 58.18014,193.423628 58.0201449,193.04164 C56.0022065,188.156789 51.2833505,185.000885 45.9995117,185.000885 C38.8317305,185.000885 32.9999084,190.832707 32.9999084,198.000488 C32.9999084,205.16827 38.8317305,211.000092 45.9995117,211.000092 C50.4853748,211.000092 54.5692502,208.728161 56.9481776,205.000275 L52.4993134,205.000275 C51.6713386,205.000275 50.9993591,204.328295 50.9993591,203.50032 C50.9993591,202.672346 51.6713386,202.000366 52.4993134,202.000366 L60.4990692,202.000366 C61.327044,202.000366 61.9990235,202.672346 61.9990235,203.50032 L61.9990235,211.500076 C61.9990235,212.328051 61.327044,213.000031 60.4990692,213.000031 L60.4990692,213.000031 Z" id="Shape" sketch:type="MSShapeGroup" transform="translate(45.999512, 198.000488) scale(1, -1) translate(-45.999512, -198.000488) "></path>
        </g>
    </g>
</svg>